<svg width="159" height="128" viewBox="0 0 159 128" fill="none" xmlns="http://www.w3.org/2000/svg">
    <path fill-rule="evenodd" clip-rule="evenodd"
        d="M86.1362 73.3318C83.8844 70.3339 82.7584 68.8349 81.3786 68.2988C80.17 67.8291 78.8293 67.8291 77.6207 68.2988C76.2409 68.8349 75.1149 70.3339 72.8631 73.3318L41.7787 114.715C38.5673 118.99 36.9615 121.128 36.9978 122.917C37.0294 124.475 37.7591 125.936 38.9854 126.896C40.3945 128 43.0681 128 48.4153 128H110.584C115.931 128 118.605 128 120.014 126.896C121.24 125.936 121.97 124.475 122.001 122.917C122.038 121.128 120.432 118.99 117.221 114.715L86.1362 73.3318ZM63.6 8.30027C63.6 5.3949 63.6 3.94222 64.1654 2.83252C64.6628 1.85639 65.4564 1.06278 66.4325 0.565422C67.5422 0 68.9949 0 71.9003 0H87.0997C90.0051 0 91.4578 0 92.5675 0.565422C93.5436 1.06278 94.3372 1.85639 94.8346 2.83252C95.4 3.94222 95.4 5.3949 95.4 8.30027V41.0516L118.607 17.88C120.66 15.8299 121.687 14.8049 122.87 14.4208C123.911 14.0829 125.032 14.0829 126.073 14.4208C127.257 14.8049 128.283 15.8299 130.336 17.88L141.075 28.6024C143.134 30.6581 144.163 31.6859 144.549 32.8715C144.888 33.9143 144.888 35.0378 144.549 36.0806C144.163 37.2662 143.134 38.294 141.075 40.3497L117.886 63.5035H150.7C153.605 63.5035 155.058 63.5035 156.167 64.0689C157.144 64.5663 157.937 65.3599 158.435 66.336C159 67.4457 159 68.8984 159 71.8038V86.955C159 89.8604 159 91.3131 158.435 92.4228C157.937 93.3989 157.144 94.1925 156.167 94.6898C155.058 95.2553 153.605 95.2553 150.7 95.2553H8.30027C5.3949 95.2553 3.94222 95.2553 2.83252 94.6898C1.85639 94.1925 1.06278 93.3989 0.565422 92.4228C0 91.3131 0 89.8604 0 86.955V71.8038C0 68.8984 0 67.4457 0.565422 66.336C1.06278 65.3599 1.85639 64.5663 2.83252 64.0689C3.94222 63.5035 5.3949 63.5035 8.30026 63.5035H41.1135L17.9246 40.3502C15.8658 38.2945 14.8364 37.2667 14.4507 36.0811C14.1116 35.0383 14.1115 33.9148 14.4507 32.872C14.8363 31.6864 15.8657 30.6585 17.9245 28.6029L28.6633 17.8804C30.7164 15.8304 31.743 14.8054 32.9264 14.4213C33.9674 14.0834 35.0886 14.0834 36.1295 14.4213C37.313 14.8054 38.3395 15.8304 40.3927 17.8804L63.6 41.0521V8.30027Z"
        fill="white" />
</svg>